<svg width="24" height="24" viewBox="0 0 24 24" fill="none" xmlns="http://www.w3.org/2000/svg">
<path d="M3 11.9136V18.3605C3 19.266 3.74966 20 4.67442 20H8.02326C8.25444 20 8.44186 19.8165 8.44186 19.5901V15.8458V15.6962C8.44186 13.772 10.0349 12.2122 12 12.2122C13.9651 12.2122 15.5581 13.772 15.5581 15.6962V15.8458V19.5901C15.5581 19.8165 15.7456 20 15.9767 20H19.3256C20.2504 20 21 19.266 21 18.3605V11.9136C21 10.6766 20.4294 9.50566 19.4473 8.72743L14.6334 4.91268C13.0977 3.69577 10.9023 3.69577 9.3666 4.91268L4.55265 8.72743C3.57058 9.50566 3 10.6766 3 11.9136Z" fill="black" stroke="black" stroke-width="1.875" stroke-linecap="round"/>
</svg>
