<svg width="24" height="24" viewBox="0 0 24 24" fill="none" xmlns="http://www.w3.org/2000/svg">
<path fill-rule="evenodd" clip-rule="evenodd" d="M2.00207 9.4959C1.65132 7.00019 1.47595 5.75234 1.82768 4.73084C2.13707 3.83231 2.72297 3.05479 3.50142 2.50971C4.38639 1.89005 5.63425 1.71467 8.12996 1.36392L10.7047 1.00207C13.2004 0.651325 14.4482 0.47595 15.4697 0.827679C16.3682 1.13707 17.1458 1.72297 17.6908 2.50142C17.9171 2.82454 18.0841 3.19605 18.2221 3.65901C17.7476 3.64611 17.2197 3.64192 16.6269 3.64055C16.5775 3.5411 16.5231 3.44881 16.4621 3.36178C16.0987 2.84282 15.5804 2.45222 14.9814 2.24596C14.3004 2.01147 13.4685 2.12839 11.8047 2.36222L7.44748 2.97458C5.78367 3.20841 4.95177 3.32533 4.36178 3.73844C3.84282 4.10182 3.45222 4.62017 3.24596 5.21919C3.01147 5.90019 3.12839 6.73209 3.36222 8.3959L3.97458 12.7531C4.15588 14.0431 4.26689 14.833 4.50015 15.3978C4.50083 16.3151 4.50509 17.0849 4.53201 17.7448C4.13891 17.4561 3.79293 17.1036 3.50971 16.6991C2.89005 15.8142 2.71467 14.5663 2.36392 12.0706L2.00207 9.4959Z" fill="black"/>
<mask id="mask0_15_2943" style="mask-type:luminance" maskUnits="userSpaceOnUse" x="6" y="5" width="17" height="18">
<path d="M18.5 5.1394H10.5C8.01472 5.1394 6 7.15412 6 9.6394V17.6394C6 20.1247 8.01472 22.1394 10.5 22.1394H18.5C20.9853 22.1394 23 20.1247 23 17.6394V9.6394C23 7.15412 20.9853 5.1394 18.5 5.1394Z" fill="white"/>
</mask>
<g mask="url(#mask0_15_2943)">
<path d="M18.5 5.8894H10.5C8.42893 5.8894 6.75 7.56833 6.75 9.6394V17.6394C6.75 19.7105 8.42893 21.3894 10.5 21.3894H18.5C20.5711 21.3894 22.25 19.7105 22.25 17.6394V9.6394C22.25 7.56833 20.5711 5.8894 18.5 5.8894Z" stroke="black" stroke-width="1.5"/>
<path d="M6.6546 17.8894L8.59043 15.9536C9.1583 15.3857 10.0727 15.3658 10.6647 15.9085L12.5062 17.5966C12.9009 17.9584 13.5105 17.9451 13.8891 17.5665L17.8181 13.6376C18.4038 13.0518 19.3536 13.0518 19.9394 13.6375L22.0663 15.7644" stroke="black" stroke-width="1.5" stroke-linejoin="round"/>
<path d="M10.75 11.1394C11.4404 11.1394 12 10.5798 12 9.8894C12 9.19904 11.4404 8.6394 10.75 8.6394C10.0596 8.6394 9.5 9.19904 9.5 9.8894C9.5 10.5798 10.0596 11.1394 10.75 11.1394Z" fill="black"/>
</g>
</svg>
