<svg width="24" height="24" viewBox="0 0 24 24" fill="none" xmlns="http://www.w3.org/2000/svg">
<path d="M11.25 5.5H4.75C4.33579 5.5 4 5.83579 4 6.25C4 6.66421 4.33579 7 4.75 7H11.25C11.6642 7 12 6.66421 12 6.25C12 5.83579 11.6642 5.5 11.25 5.5Z" fill="black"/>
<path d="M19.25 11.25H4.75C4.33579 11.25 4 11.5858 4 12C4 12.4142 4.33579 12.75 4.75 12.75H19.25C19.6642 12.75 20 12.4142 20 12C20 11.5858 19.6642 11.25 19.25 11.25Z" fill="black"/>
<path d="M14.25 17H4.75C4.33579 17 4 17.3358 4 17.75C4 18.1642 4.33579 18.5 4.75 18.5H14.25C14.6642 18.5 15 18.1642 15 17.75C15 17.3358 14.6642 17 14.25 17Z" fill="black"/>
</svg>
