<svg width="24" height="24" viewBox="0 0 24 24" fill="none" xmlns="http://www.w3.org/2000/svg">
<path fill-rule="evenodd" clip-rule="evenodd" d="M9.70499 7.08652C9.70499 5.86513 10.6951 4.875 11.9165 4.875C13.1379 4.875 14.128 5.86513 14.128 7.08652C14.128 8.30791 13.1379 9.29804 11.9165 9.29804C10.6951 9.29804 9.70499 8.30791 9.70499 7.08652ZM11.9165 3C9.65959 3 7.82999 4.8296 7.82999 7.08652C7.82999 9.34344 9.65959 11.173 11.9165 11.173C14.1734 11.173 16.003 9.34344 16.003 7.08652C16.003 4.8296 14.1734 3 11.9165 3ZM11.9164 12.8406C9.43587 12.8406 7.36658 13.6151 5.89957 14.72C4.46719 15.7988 3.5 17.2886 3.5 18.7515C3.5 19.5004 3.8215 20.1523 4.48971 20.5561C5.07163 20.9077 5.8254 21.0137 6.61566 21.0137H17.2257C18.0124 21.0137 18.7643 20.9076 19.3452 20.5554C20.0117 20.1515 20.3328 19.5 20.3328 18.7515C20.3328 17.2886 19.3657 15.7988 17.9333 14.72C16.4663 13.6151 14.397 12.8406 11.9164 12.8406ZM5.375 18.7515C5.375 18.0919 5.86276 17.095 7.02757 16.2177C8.15777 15.3665 9.82794 14.7156 11.9164 14.7156C14.0049 14.7156 15.6751 15.3665 16.8053 16.2177C17.9701 17.095 18.4578 18.0919 18.4578 18.7515C18.4578 18.8554 18.4382 18.8935 18.4353 18.899L18.4351 18.8993C18.4336 18.9023 18.4241 18.9213 18.3734 18.952C18.2354 19.0356 17.9024 19.1387 17.2257 19.1387H6.61566C5.93396 19.1387 5.59865 19.0354 5.45948 18.9513C5.40836 18.9205 5.39892 18.9015 5.39754 18.8987L5.39741 18.8985C5.39464 18.8933 5.375 18.8554 5.375 18.7515Z" fill="black"/>
</svg>
