<svg width="24" height="24" viewBox="0 0 24 24" fill="none" xmlns="http://www.w3.org/2000/svg">
<path d="M19.1119 9.82115C18.8761 9.82115 18.6499 9.91286 18.4832 10.0761C18.3165 10.2394 18.2228 10.4608 18.2228 10.6916V14.3721C18.2219 15.1268 17.9153 15.8502 17.3703 16.3839C16.8253 16.9175 16.0864 17.2177 15.3157 17.2186H10.5922L12.1845 15.663C12.3467 15.4991 12.4366 15.2793 12.4349 15.0511C12.4332 14.8228 12.3401 14.6043 12.1754 14.4427C12.0108 14.2811 11.788 14.1892 11.5549 14.1869C11.3218 14.1846 11.0971 14.2721 10.9292 14.4304L7.81397 17.4728C7.64723 17.6361 7.55327 17.8573 7.55259 18.0882V18.0891C7.55259 18.1091 7.56326 18.1257 7.56415 18.1457C7.56892 18.3572 7.65868 18.5583 7.81397 18.7054L10.9274 21.7556C11.0951 21.9142 11.3196 22.002 11.5527 22C11.7858 21.998 12.0088 21.9064 12.1736 21.745C12.3385 21.5836 12.432 21.3653 12.434 21.1371C12.436 20.9088 12.3464 20.6889 12.1845 20.5248L10.5869 18.9596H15.3148C16.5569 18.9582 17.7478 18.4745 18.6262 17.6144C19.5045 16.7544 19.9986 15.5884 20 14.3721V10.6916C20 10.4608 19.9063 10.2394 19.7396 10.0761C19.5729 9.91286 19.3476 9.82115 19.1119 9.82115ZM13.4131 6.7779L11.8173 8.34044C11.7324 8.42074 11.6647 8.51679 11.6181 8.623C11.5715 8.7292 11.5469 8.84343 11.5459 8.95901C11.5449 9.07459 11.5674 9.18922 11.6121 9.2962C11.6568 9.40318 11.7228 9.50037 11.8063 9.58211C11.8898 9.66384 11.989 9.72848 12.0983 9.77225C12.2075 9.81602 12.3246 9.83804 12.4427 9.83704C12.5607 9.83603 12.6774 9.81202 12.7858 9.7664C12.8943 9.72078 12.9924 9.65446 13.0744 9.57132L16.186 6.52458C16.3529 6.3609 16.4466 6.13909 16.4466 5.90784C16.4466 5.67659 16.3529 5.45478 16.186 5.29109L13.0744 2.24436C12.9067 2.08579 12.6822 1.99805 12.4491 2.00003C12.2159 2.00202 11.993 2.09357 11.8281 2.25496C11.6633 2.41636 11.5698 2.63469 11.5678 2.86293C11.5657 3.09117 11.6554 3.31106 11.8173 3.47524L13.4122 5.03691H8.68523C7.44313 5.03852 6.25238 5.52236 5.37409 6.38234C4.4958 7.24231 4.00165 8.40823 4 9.62442V13.3057C4 13.5366 4.09367 13.758 4.26039 13.9213C4.42712 14.0845 4.65325 14.1762 4.88904 14.1762C5.12482 14.1762 5.35095 14.0845 5.51768 13.9213C5.68441 13.758 5.77807 13.5366 5.77807 13.3057V9.62442C5.77925 8.86968 6.08604 8.14619 6.63117 7.61259C7.17631 7.07899 7.9153 6.77882 8.68611 6.7779H13.4131Z" fill="black"/>
</svg>
