<svg width="24" height="24" viewBox="0 0 24 24" fill="none" xmlns="http://www.w3.org/2000/svg">
<path fill-rule="evenodd" clip-rule="evenodd" d="M4.9149 11.0426C4.9149 7.65834 7.65834 4.9149 11.0426 4.9149C14.4268 4.9149 17.1702 7.65834 17.1702 11.0426C17.1702 14.4268 14.4268 17.1702 11.0426 17.1702C7.65834 17.1702 4.9149 14.4268 4.9149 11.0426ZM11.0426 3C6.60078 3 3 6.60078 3 11.0426C3 15.4844 6.60078 19.0851 11.0426 19.0851C12.9184 19.0851 14.6443 18.4429 16.0123 17.3663L19.3655 20.7196C19.7395 21.0935 20.3457 21.0935 20.7196 20.7196C21.0935 20.3457 21.0935 19.7395 20.7196 19.3655L17.3663 16.0123C18.4429 14.6443 19.0851 12.9184 19.0851 11.0426C19.0851 6.60078 15.4844 3 11.0426 3Z" fill="black"/>
</svg>
