<svg width="24" height="24" viewBox="0 0 24 24" fill="none" xmlns="http://www.w3.org/2000/svg">
<path d="M20 12V12.1231C20 14.8802 20 16.2589 19.4634 17.3119C18.9914 18.2383 18.2383 18.9914 17.3119 19.4634C16.2589 20 14.8802 20 12.1231 20H11.8769C9.11975 20 7.74115 20 6.68805 19.4634C5.76171 18.9914 5.00857 18.2383 4.53658 17.3119C4 16.2589 4 14.8802 4 12.1231V11.8769C4 9.11974 4 7.74115 4.53658 6.68805C5.00857 5.76171 5.76171 5.00857 6.68805 4.53658C7.74115 4 9.11974 4 11.8769 4H12" stroke="black" stroke-width="1.875" stroke-linecap="round"/>
<path d="M18.5625 5.4375L12.5625 11.4375L18.5625 5.4375Z" fill="black"/>
<path d="M18.5625 5.4375L12.5625 11.4375" stroke="black" stroke-width="1.875" stroke-linecap="round"/>
</svg>
